<svg xmlns="http://www.w3.org/2000/svg" xmlns:xlink="http://www.w3.org/1999/xlink" width="243" zoomAndPan="magnify" viewBox="0 0 182.25 80.249996" height="107" preserveAspectRatio="xMidYMid meet" version="1.0"><defs><g/><clipPath id="c048092599"><path d="M 17 6 L 70 6 L 70 61 L 17 61 Z M 17 6 " clip-rule="nonzero"/></clipPath><clipPath id="9039222bc3"><path d="M 24.703125 1.039062 L 75.203125 13.5 L 62.207031 66.164062 L 11.707031 53.703125 Z M 24.703125 1.039062 " clip-rule="nonzero"/></clipPath><clipPath id="66fdc70bea"><path d="M 24.703125 1.039062 L 75.203125 13.5 L 62.207031 66.164062 L 11.707031 53.703125 Z M 24.703125 1.039062 " clip-rule="nonzero"/></clipPath><clipPath id="647328f7d4"><path d="M 52 37 L 60 37 L 60 45 L 52 45 Z M 52 37 " clip-rule="nonzero"/></clipPath><clipPath id="a7879f0fb6"><path d="M 24.703125 1.039062 L 75.203125 13.5 L 62.207031 66.164062 L 11.707031 53.703125 Z M 24.703125 1.039062 " clip-rule="nonzero"/></clipPath><clipPath id="7f9782667a"><path d="M 24.703125 1.039062 L 75.203125 13.5 L 62.207031 66.164062 L 11.707031 53.703125 Z M 24.703125 1.039062 " clip-rule="nonzero"/></clipPath><clipPath id="91de4cbc1b"><path d="M 83 78 L 91 78 L 91 79.507812 L 83 79.507812 Z M 83 78 " clip-rule="nonzero"/></clipPath></defs><g clip-path="url(#c048092599)"><g clip-path="url(#9039222bc3)"><g clip-path="url(#66fdc70bea)"><path fill="#13e8af" d="M 34.703125 42.304688 C 33.601562 40.488281 32.488281 38.636719 31.636719 36.5625 C 31.210938 35.527344 30.863281 34.425781 30.699219 33.261719 C 30.542969 32.101562 30.632812 30.824219 31.164062 29.789062 C 30.996094 30.9375 31.167969 32 31.511719 32.984375 C 31.839844 33.972656 32.324219 34.894531 32.828125 35.800781 C 33.855469 37.609375 35.03125 39.34375 36.140625 41.167969 C 37.25 42.984375 38.335938 44.878906 39.121094 47 C 39.511719 48.054688 39.808594 49.179688 39.929688 50.351562 C 40.039062 51.515625 39.949219 52.757812 39.488281 53.816406 C 39.574219 52.667969 39.414062 51.59375 39.105469 50.59375 C 38.8125 49.582031 38.371094 48.636719 37.902344 47.710938 C 36.945312 45.867188 35.808594 44.121094 34.703125 42.304688 Z M 36.136719 25.582031 C 36.578125 24.695312 37.113281 23.859375 37.765625 23.113281 C 37.414062 24.039062 37.0625 24.9375 36.742188 25.839844 C 36.429688 26.746094 36.148438 27.65625 35.945312 28.574219 C 35.726562 29.492188 35.597656 30.425781 35.574219 31.359375 C 35.5625 32.300781 35.671875 33.242188 35.964844 34.183594 C 35.351562 33.402344 35.023438 32.398438 34.914062 31.394531 C 34.792969 30.382812 34.898438 29.363281 35.117188 28.386719 C 35.347656 27.410156 35.683594 26.46875 36.136719 25.582031 Z M 40.523438 24.9375 C 40.769531 24.597656 41.003906 24.246094 41.253906 23.914062 C 41.523438 23.597656 41.8125 23.296875 42.089844 22.996094 C 42.238281 22.851562 42.375 22.695312 42.527344 22.558594 C 42.683594 22.425781 42.835938 22.292969 43 22.160156 C 43.148438 22.039062 43.296875 21.929688 43.449219 21.804688 C 43.808594 21.46875 44.183594 21.152344 44.585938 20.875 C 43.847656 21.75 43.191406 22.671875 42.746094 23.675781 C 42.28125 24.667969 42.050781 25.730469 41.976562 26.808594 C 41.914062 27.878906 41.984375 28.96875 42.167969 30.054688 C 42.339844 31.144531 42.570312 32.238281 42.832031 33.335938 C 43.074219 34.441406 43.335938 35.554688 43.550781 36.679688 C 43.75 37.8125 43.941406 38.960938 43.996094 40.121094 C 44.152344 42.4375 43.882812 44.824219 42.972656 46.9375 C 43.3125 44.667969 43.257812 42.433594 42.914062 40.238281 C 42.734375 39.136719 42.53125 38.042969 42.261719 36.949219 L 41.476562 33.640625 C 41.238281 32.527344 40.996094 31.394531 40.867188 30.226562 C 40.761719 29.179688 40.722656 28.097656 40.859375 27.027344 C 40.566406 27.945312 40.382812 28.882812 40.316406 29.839844 C 40.191406 31.355469 40.351562 32.957031 40.238281 34.625 C 40.160156 36.273438 39.710938 37.996094 38.710938 39.308594 C 39.183594 37.730469 39.261719 36.179688 39.152344 34.621094 C 39.050781 33.058594 38.796875 31.441406 38.933594 29.742188 C 39.046875 28.046875 39.605469 26.347656 40.523438 24.9375 Z M 56.152344 24.933594 L 55.898438 25.964844 C 55.3125 25.382812 51.132812 23.21875 51.132812 23.21875 Z M 49.917969 7.261719 C 36.054688 3.839844 21.988281 12.339844 18.566406 26.203125 C 15.144531 40.070312 23.640625 54.136719 37.507812 57.558594 C 37.5625 57.570312 37.617188 57.582031 37.675781 57.59375 C 37.574219 58.476562 37.210938 59.261719 36.566406 60.039062 C 42.617188 58.023438 47.460938 43.722656 45.644531 40.132812 C 48.679688 43.21875 47.878906 50.914062 45.894531 54.371094 C 53.273438 47.714844 48.90625 38.160156 46.625 34.671875 C 44.34375 31.183594 45.460938 24.878906 48.242188 23.085938 C 47.113281 26.167969 54.382812 28.109375 54.476562 31.273438 C 54.570312 34.441406 51.273438 35.085938 54.078125 36.4375 C 56.746094 37.71875 60.308594 36.402344 59.964844 33.59375 C 59.9375 33.351562 60.132812 33.144531 60.371094 33.171875 C 60.585938 33.195312 60.84375 33.222656 61.089844 33.257812 C 61.398438 33.296875 61.636719 32.980469 61.5 32.695312 C 60.730469 31.054688 58.742188 26.90625 57.613281 25.320312 C 56.183594 23.324219 57.679688 23.054688 54.472656 19.613281 C 54.757812 17.769531 51.601562 16.03125 47.882812 14.8125 C 48.238281 15.46875 48.550781 16.144531 48.570312 16.472656 C 47.910156 15.148438 46.679688 13.894531 45.617188 12.976562 C 44.554688 12.050781 43.652344 11.460938 43.652344 11.460938 C 43.652344 11.460938 42.210938 13.265625 41.855469 14.773438 L 41.824219 14.808594 L 41.859375 14.726562 C 41.933594 14.277344 42.074219 13.800781 42.21875 13.410156 C 40.449219 13.117188 38.914062 13.003906 37.976562 13.128906 C 37.976562 13.128906 40.140625 14.726562 40.28125 15.34375 C 40.28125 15.34375 33.273438 15.003906 30.484375 19.796875 C 30.484375 19.796875 34.613281 19.0625 35.542969 19.730469 C 35.542969 19.730469 21.101562 28.488281 28.921875 40.628906 C 33.695312 48.03125 36.566406 52.308594 37.425781 55.324219 C 25.054688 51.933594 17.539062 39.234375 20.632812 26.707031 C 23.773438 13.980469 36.683594 6.179688 49.40625 9.320312 C 62.136719 12.460938 69.933594 25.371094 66.792969 38.097656 C 64.0625 49.160156 53.949219 56.503906 42.988281 56.167969 C 42.546875 56.867188 42.070312 57.570312 41.601562 58.21875 C 54.042969 59.246094 65.773438 51.109375 68.859375 38.605469 C 72.285156 24.75 63.789062 10.683594 49.917969 7.261719 Z M 49.917969 7.261719 " fill-opacity="1" fill-rule="nonzero"/></g></g></g><g clip-path="url(#647328f7d4)"><g clip-path="url(#a7879f0fb6)"><g clip-path="url(#7f9782667a)"><path fill="#13e8af" d="M 59.253906 37.472656 C 58.660156 37.109375 57.53125 37.390625 56.445312 37.632812 C 54.4375 38.078125 52.453125 39.25 52.960938 39.976562 C 53.253906 40.402344 54.460938 41.039062 55.628906 41.433594 C 55.65625 41.449219 55.667969 41.46875 55.699219 41.484375 C 57.28125 42.414062 56.390625 44.023438 56.390625 44.023438 C 57.230469 43.535156 58.28125 41.800781 58.941406 40.085938 C 59.011719 39.917969 59.074219 39.746094 59.128906 39.574219 L 59.140625 39.542969 L 59.136719 39.542969 C 59.445312 38.589844 59.542969 37.652344 59.253906 37.472656 Z M 59.253906 37.472656 " fill-opacity="1" fill-rule="nonzero"/></g></g></g><g fill="#ffffff" fill-opacity="1"><g transform="translate(69.391544, 45.695885)"><g><path d="M 7.953125 0 L 7.953125 -9.734375 L 12.871094 -9.734375 C 22.75 -9.734375 22.785156 -25.460938 12.871094 -25.460938 L 2.851562 -25.460938 L 2.851562 0 Z M 7.953125 -14.691406 L 7.953125 -20.398438 L 12.445312 -20.398438 C 15.867188 -20.398438 15.867188 -14.691406 12.445312 -14.691406 Z M 7.953125 -14.691406 "/></g></g></g><g fill="#ffffff" fill-opacity="1"><g transform="translate(90.891535, 45.695885)"><g><path d="M 0.570312 0 L 6.347656 0 L 7.347656 -2.746094 L 15.796875 -2.746094 L 16.832031 0 L 22.574219 0 L 11.839844 -26.421875 L 11.304688 -26.421875 Z M 9.199219 -7.523438 L 11.589844 -14.15625 L 13.90625 -7.523438 Z M 9.199219 -7.523438 "/></g></g></g><g fill="#ffffff" fill-opacity="1"><g transform="translate(114.174277, 45.695885)"><g><path d="M 15.546875 0 L 21.324219 0 L 15.40625 -10.519531 C 22.894531 -12.695312 22 -25.496094 12.910156 -25.496094 L 2.851562 -25.496094 L 2.851562 0 L 7.953125 0 L 7.953125 -9.734375 L 10.414062 -9.734375 Z M 7.953125 -14.691406 L 7.953125 -20.398438 L 12.445312 -20.398438 C 15.902344 -20.398438 15.902344 -14.691406 12.445312 -14.691406 Z M 7.953125 -14.691406 "/></g></g></g><g clip-path="url(#91de4cbc1b)"><g fill="#9400d3" fill-opacity="1"><g transform="translate(83.378621, 86.598312)"><g><path d="M 5.421875 -1.71875 L 2.046875 -1.71875 L 1.4375 0 L 0.359375 0 L 3.15625 -7.6875 L 4.328125 -7.6875 L 7.109375 0 L 6.046875 0 Z M 5.140625 -2.546875 L 3.734375 -6.453125 L 2.34375 -2.546875 Z M 5.140625 -2.546875 "/></g></g></g></g><g fill="#13e8af" fill-opacity="1"><g transform="translate(135.686512, 45.695885)"><g><path d="M 12.160156 0 L 12.160156 -20.398438 L 18.507812 -20.398438 L 18.507812 -25.460938 L 0.714844 -25.460938 L 0.714844 -20.398438 L 7.058594 -20.398438 L 7.058594 0 Z M 12.160156 0 "/></g></g></g><g fill="#ffffff" fill-opacity="1"><g transform="translate(154.584069, 45.695885)"><g><path d="M 20.683594 0 L 20.683594 -25.496094 L 15.582031 -25.496094 L 15.582031 -15.296875 L 7.953125 -15.296875 L 7.953125 -25.496094 L 2.851562 -25.496094 L 2.851562 0 L 7.953125 0 L 7.953125 -10.199219 L 15.582031 -10.199219 L 15.582031 0 Z M 20.683594 0 "/></g></g></g></svg>